<?xml version="1.0" encoding="UTF-8"?> <svg xmlns="http://www.w3.org/2000/svg" xmlns:xlink="http://www.w3.org/1999/xlink" width="601px" height="146px" viewBox="0 0 601 146" version="1.1"><title>astrazeneca-logo</title><g id="Page-1" stroke="none" stroke-width="1" fill="none" fill-rule="evenodd"><g id="astrazeneca-logo" fill-rule="nonzero"><path d="M19.5,116.9 L29.4,90.1 L38.8,116.9 L19.5,116.9 Z M48.4,143.9 L57.5,143.9 L34,79.3 L25,79.3 L0.4,143.9 L9.5,143.9 L16.7,124.1 L41.3,124.1 L48.4,143.9 Z M91.4,130.2 C91.4,135.5 87.1,138.3 79.8,138.3 C73.9,138.3 70,136.6 67.8,132.8 L59.1,134.3 C62.5,141.2 69.5,144.6 79.5,144.6 C93,144.6 100,137.1 100,129.2 C100,119 90.6,116.2 79.7,114 C74.5,112.9 68.3,111 68.3,106.4 C68.3,103.1 71.5,99.3 78,99.3 C84.6,99.3 88.5,103.8 89.1,105.6 L96.7,102.4 C93.2,95.7 86.2,93 78.8,93 C67.5,93 59.9,98.6 59.9,107.5 C59.9,117.6 68.6,119.6 77,121.4 C84.4,122.9 91.4,124.7 91.4,130.2 M118.1,79.3 L109.6,82.8 L109.6,94.7 L101.8,94.7 L101.8,101.6 L109.6,101.6 L109.6,133.1 C109.5,139.5 109.5,144.1 119,144.1 C122.1,144.1 125.5,143.5 127,143.3 L127,136.5 C125.4,137 123.2,137.6 121.6,137.6 C118.1,137.6 118.1,135.1 118.1,129.3 L118.1,101.5 L127,101.5 L127,94.6 L118.1,94.6 L118.1,79.3 L118.1,79.3 Z M134.4,94.8 L134.4,143.9 L142.6,143.9 L142.6,121.3 C142.6,117.1 142.5,112.1 144.7,108.6 C147.4,104.2 151.3,102.6 159.4,102.5 L159.4,94 C156.1,94.1 147.3,94.3 142.6,103.6 L142.6,94.8 L134.4,94.8 L134.4,94.8 Z M208.2,79.4 L208.2,87.4 L244.9,87.4 L208.2,135.6 L208.2,144 L255.6,144 L255.6,136.3 L218.1,136.3 L254.6,87.6 L254.6,79.5 L208.2,79.5 L208.2,79.4 Z M307.2,94.8 L307.2,143.9 L315.4,143.9 L315.4,116.1 C315.4,112.5 315.4,108.7 319,105.1 C321.6,102.5 324.7,101.4 328.4,101.4 C332.9,101.4 337.5,103.5 338.9,108.1 C339.4,109.8 339.4,111.2 339.4,116.2 L339.4,143.9 L347.6,143.9 L347.6,114.8 C347.6,110.6 347.6,107.7 346.8,104.8 C344.4,96.7 336.9,93.6 330.7,93.6 C327.8,93.6 320,94.3 315.4,102.3 L315.4,94.8 L307.2,94.8 L307.2,94.8 Z M435.1,132 C433.4,135.4 430.1,138.4 423.8,138.4 C418.3,138.4 409,134.9 409,118.7 C409,114.3 409.8,98.9 423.3,98.9 C430.1,98.9 433.3,102.6 434.7,105.8 L442.4,102.6 C437.6,94.7 429.1,92.8 422.9,92.8 C407.3,92.8 399.7,105.4 399.7,119.2 C399.7,131.2 406.2,144.6 423.6,144.6 C433.6,144.6 439.2,139.7 442.3,134.9 L435.1,132 L435.1,132 Z M267.4,114.3 L293.4,114.3 C292.7,101.5 285.3,99.3 280.3,99.3 C273.3,99.2 268.3,104.4 267.4,114.3 M300.2,134.5 C297.4,139.3 292,144.8 281.3,144.8 C266.8,144.8 258.5,135 258.5,118.4 C258.5,100 270.7,92.9 281,92.9 C290,92.9 298.6,97.9 301.5,110.2 C302.4,114.3 302.4,118.1 302.4,120.1 L267.2,120.1 C267,128.3 270.4,138.7 282,138.5 C286.7,138.4 290.1,136.3 292.2,132.9 L300.2,134.5 Z M361,114.3 L387,114.3 C386.3,101.5 378.9,99.3 373.9,99.3 C366.9,99.2 361.9,104.4 361,114.3 M393.8,134.5 C391,139.3 385.6,144.8 374.9,144.8 C360.4,144.8 352.1,135 352.1,118.4 C352.1,100 364.2,92.9 374.6,92.9 C383.6,92.9 392.2,97.9 395.1,110.2 C396,114.3 396,118.1 396,120.1 L360.8,120.1 C360.6,128.3 364,138.7 375.6,138.5 C380.3,138.4 383.7,136.3 385.8,132.9 L393.8,134.5 Z M487.4,143.9 L478.8,143.9 C478.8,143.9 478.1,140.4 477.8,136.7 C475.3,139.3 470.7,144.6 461.4,144.6 C451.9,144.6 444.8,138.9 444.8,130.7 C444.8,128.1 445.5,125.5 447,123.3 C449.8,119.1 455,115.8 469.6,114.7 L477.4,114.1 L477.4,112.9 C477.4,107.8 477.4,99.3 466.4,99.3 C459.5,99.3 457.2,102.6 456.4,105.7 L448.8,102.5 C448.9,102.2 449,102 449.2,101.7 C452.1,96.3 457.8,93 466.1,93 C470.6,93 476.5,94.1 480.4,97.2 C485.9,101.3 485.7,109.5 485.7,109.5 L486,134.7 C486.1,134.5 486.3,141.8 487.4,143.9 M476.1,130.4 C477.3,127.7 477.4,126.6 477.4,119.4 C474.2,119.9 469.9,120.5 464.6,121.7 C455.5,123.7 453.9,127.1 453.9,130.5 C453.9,134.4 457,137.8 463.1,137.8 C468.9,137.7 473.8,135.4 476.1,130.4 M202.3,143.9 L193.7,143.9 C193.7,143.9 193,140.4 192.7,136.7 C190.2,139.3 185.6,144.6 176.3,144.6 C166.8,144.6 159.7,138.9 159.7,130.7 C159.7,128.1 160.4,125.5 161.9,123.3 C164.7,119.1 169.9,115.8 184.5,114.7 L192.3,114.1 L192.3,112.9 C192.3,107.8 192.3,99.3 181.4,99.3 C174.5,99.3 172.2,102.6 171.4,105.7 L163.8,102.5 C163.9,102.2 164.1,102 164.2,101.7 C167.1,96.3 172.8,93 181.1,93 C185.6,93 191.5,94.1 195.4,97.2 C200.9,101.3 200.7,109.5 200.7,109.5 L201,134.7 C201,134.5 201.3,141.8 202.3,143.9 M191.1,130.4 C192.3,127.7 192.5,126.6 192.5,119.4 C189.3,119.9 185,120.5 179.7,121.7 C170.6,123.7 169,127.1 169,130.5 C169,134.4 172.1,137.8 178.2,137.8 C183.8,137.7 188.7,135.4 191.1,130.4" id="Shape" fill="#FFFFFF"></path><path d="M541,102.6 C539.7,103.4 538.4,104.2 537.2,105.1 C522.4,96.9 490.6,81.1 487.9,79.6 C485,78.1 479.8,76 480.5,71.1 C481.4,64.2 493.3,49.2 498.4,43 C525.8,9.5 538.1,-0.9 546.2,0.2 C554.9,1.3 559.7,10.3 560.3,52.3 C555.5,50.8 550.1,49.3 544.4,47.8 C543.9,41.7 542.8,32.5 542.4,29.3 C541.9,25.7 541.2,24.3 539.8,24.2 C538.2,24 534.2,27.8 530.5,31.5 C528.8,33.2 524.2,37.9 519,43.1 C514.7,42.8 511.8,43.7 510.2,45.8 C508.9,47.5 508.7,49.8 509.4,52.7 L502.7,59.4 C497,65.1 490.9,69.8 490.6,72.1 C490.4,74 493.2,75.9 497.4,78.4 C507.5,84.5 532.2,97.9 541,102.6 M579.5,60.6 C569.8,57.2 545.9,48.3 520.7,45 C512,43.9 508.5,46.9 512.1,55.2 C515.6,63.4 524.7,77 534.3,87.3 C543.9,97.6 554.2,100.3 557.5,84.5 C557.6,83.9 557.7,83.4 557.8,82.8 C558.6,78.7 559.2,74.8 559.5,71.4 C555.3,69.5 550.5,67.4 545.7,65.4 C546,69 546.4,75.3 546.6,80.1 C546.6,80.7 546.7,81.3 546.7,81.9 C547,89.7 544.3,89.7 539.9,86.5 C534.7,82.8 518.9,61.9 517.1,52.7 C517,52.1 517.3,52.1 517.6,52.2 C517.7,52.2 517.8,52.3 518,52.4 C521.6,53.8 533.5,58.5 545.5,63.6 C550.3,65.6 555.2,67.7 559.5,69.7 C563.8,71.6 567.6,73.4 570.5,75 C575.7,77.8 577.7,79.7 575.6,81.9 C564.7,92.9 526.8,108.6 513.7,128 C513.7,128 513.6,128.1 513.6,128.2 C513.4,128.4 513.3,128.6 513.2,128.9 C513.2,129 513.1,129.1 513.1,129.1 C512.5,130.3 511.5,132.4 511.2,134.9 C510.6,139.1 512.8,143 518.9,144.7 C520.4,145.2 522.2,145.5 524.1,145.7 C524.4,145.7 524.8,145.8 525.2,145.8 C536.9,146.4 567.3,139.7 576.5,135.6 C586.1,131.4 583.2,127.1 580.4,125 C578.3,123.3 567.7,117.4 562.5,114.6 C561.1,115.5 560,116.2 558.7,117.1 C567.5,122.5 570.9,125.1 573,126.7 C573.8,127.3 573.4,128 572.2,128.1 C571.9,128.1 571.6,128.1 571.3,128.2 C563,128.8 547.2,129.9 539.8,130.3 C538.7,130.4 537.5,130.4 536.8,130.4 C538.6,128.7 540.7,127.1 541.7,126.4 C557.6,115.3 584,99.6 591.8,92.8 C597.5,87.6 613.1,72.4 579.5,60.6" id="Shape" fill="#F9B000"></path></g></g></svg> 